# xmcd
#
# Track frame offsets: 
#        150
#        15640
#        31912
#        49865
#        69232
#        89550
#        110477
#        126182
#        139990
#        154782
#        170087
#        186170
#        203925
#        220300
#        236795
#        253822
#
# Disc length: 3591 seconds
#
# Revision: 0
# Processed by: cddbd v1.4PL0 Copyright (c) Steve Scherf et al.
# Submitted via: ExactAudioCopy v0.90b4
#
DISCID=ef0e0510
DTITLE=Miss-teeq - Lickin' on both sides Special edition
DYEAR=2002
DGENRE=R&B
TTITLE0=One Night Stand (Stargate Radio Edit)
TTITLE1=That Type Of Girl
TTITLE2=Roll On (Blacksmith Rub)
TTITLE3=B With Me
TTITLE4=They'll Never Know Featuring Asher D And Harvey (Courtesy Of S
TTITLE4=o Solid Crew)
TTITLE5=Stamp Reject
TTITLE6=All I Want (Sunship Radio Edit)
TTITLE7=Nasty
TTITLE8=These Days
TTITLE9=Better Better
TTITLE10=Secrets Of The Night
TTITLE11=You're Gonna Stay
TTITLE12=One Night Stand (Sunship Radio Edit)
TTITLE13=B With Me (Bump and Flex Radio Edit)
TTITLE14=Roll On (Rishi Rich Bhangrahop Edit)
TTITLE15=This Is How We Do It (Rishi Rich Mayfair Edit)
EXTD=
EXTT0=
EXTT1=
EXTT2=
EXTT3=
EXTT4=
EXTT5=
EXTT6=
EXTT7=
EXTT8=
EXTT9=
EXTT10=
EXTT11=
EXTT12=
EXTT13=
EXTT14=
EXTT15=
PLAYORDER=
